<?xml version="1.0" encoding="UTF-8"?>
<svg id="Layer_1" xmlns="http://www.w3.org/2000/svg" xmlns:xlink="http://www.w3.org/1999/xlink" version="1.1" viewBox="0 0 3000 914.2">
  <defs>
    <style>
      .st0 {
        isolation: isolate;
      }

      .st1 {
        fill: currentColor;
      }
    </style>
  </defs>
  <g>
    <path class="st1" d="M1212.3,576v-198.8h-103.8v-105.1h103.8v-125.7l127.1-33.8v159.5h157.7v105.1h-157.7v197c0,52.6,28.3,83.2,77.3,83.2s48-5.5,69.5-21l45.3,94.6c-33.4,26.1-78.2,38.4-126.2,38.4-123.9-.9-192.9-70.4-192.9-193.4Z"/>
    <path class="st1" d="M1537.3,513.3c0-144.4,112.4-253.2,263.8-253.2s263.8,108.8,263.8,253.2-112.4,253.2-263.8,253.2-263.8-107.9-263.8-253.2ZM1801,654.1c77.7,0,135.3-59.9,135.3-139.9s-58.1-140.3-135.3-140.3-135.3,59.9-135.3,139.9,58.1,140.3,135.3,140.3Z"/>
    <path class="st1" d="M2097.2,640.9l126.2-33.8c8.2,39.3,44.3,61.3,103.3,61.3s83.2-21.9,83.2-50.7-24.7-36.6-62.2-44.3l-94.2-20.1c-89.1-18.7-143.5-66.7-143.5-134.4s82.3-158.2,203-158.2,189.7,49.4,211.2,128.4l-118.8,32c-7.8-37.9-44.8-63.1-96.9-63.1s-72.7,20.6-72.7,49.4,19.7,33.8,52.6,41.6l110.2,25.1c84.1,18.7,134.8,66.3,134.8,133.9,0,99.6-83.2,159.1-218,159.1s-200.7-48-218-126.2Z"/>
    <path class="st1" d="M2563.9,640.9l126.2-33.8c8.2,39.3,44.3,61.3,103.3,61.3s83.2-21.9,83.2-50.7-24.7-36.6-62.2-44.3l-94.2-19.7c-89.1-18.7-143.5-66.7-143.5-134.4s82.3-158.2,203-158.2,189.7,49.4,211.2,128.4l-118.8,32c-7.8-37.9-44.8-63.1-96.9-63.1s-72.7,20.6-72.7,49.4,19.7,33.8,52.6,41.6l110.2,25.1c84.1,18.7,134.8,66.3,134.8,133.9,0,99.6-83.2,159.1-218,159.1-118.4-.5-200.2-48.5-218-126.6Z"/>
  </g>
  <image class="st0" width="1920" height="1784" transform="scale(.5)" xlink:href="Toss_Logo_Primary-1.png"/>
</svg>